<svg width="49" height="50" viewBox="0 0 49 50" fill="none" xmlns="http://www.w3.org/2000/svg">
<rect width="48.8889" height="50" rx="8" fill="#C13584"/>
<path d="M34.6296 4.16663H14.2593C8.63414 4.16663 4.07408 8.83033 4.07408 14.5833V35.4166C4.07408 41.1696 8.63414 45.8333 14.2593 45.8333H34.6296C40.2548 45.8333 44.8148 41.1696 44.8148 35.4166V14.5833C44.8148 8.83033 40.2548 4.16663 34.6296 4.16663Z" stroke="white" stroke-width="3" stroke-linecap="round" stroke-linejoin="round"/>
<path d="M32.5926 23.6875C32.844 25.4214 32.5544 27.1921 31.7651 28.748C30.9757 30.3038 29.7268 31.5655 28.1959 32.3535C26.665 33.1415 24.9302 33.4158 23.2381 33.1374C21.546 32.8589 19.9829 32.0419 18.771 30.8024C17.5591 29.563 16.7602 27.9643 16.4879 26.2338C16.2156 24.5033 16.4838 22.729 17.2544 21.1633C18.0249 19.5976 19.2585 18.3203 20.7798 17.513C22.301 16.7057 24.0325 16.4096 25.7278 16.6667C27.4571 16.9289 29.058 17.7531 30.2942 19.0173C31.5304 20.2816 32.3362 21.9189 32.5926 23.6875Z" stroke="white" stroke-width="3" stroke-linecap="round" stroke-linejoin="round"/>
<path d="M35.6482 13.5416H35.668" stroke="white" stroke-width="5" stroke-linecap="round" stroke-linejoin="round"/>
</svg>
