<svg width="50" height="50" viewBox="0 0 50 50" fill="none" xmlns="http://www.w3.org/2000/svg">
<rect width="50" height="50" rx="8" fill="#0E76A8"/>
<path d="M33.3333 16.6666C36.6486 16.6666 39.828 17.9836 42.1722 20.3278C44.5164 22.672 45.8333 25.8514 45.8333 29.1666V43.75H37.5V29.1666C37.5 28.0616 37.061 27.0017 36.2796 26.2203C35.4982 25.4389 34.4384 25 33.3333 25C32.2283 25 31.1685 25.4389 30.3871 26.2203C29.6057 27.0017 29.1667 28.0616 29.1667 29.1666V43.75H20.8333V29.1666C20.8333 25.8514 22.1503 22.672 24.4945 20.3278C26.8387 17.9836 30.0181 16.6666 33.3333 16.6666V16.6666Z" stroke="white" stroke-width="3" stroke-linecap="round" stroke-linejoin="round"/>
<path d="M12.5 18.75H4.16666V43.75H12.5V18.75Z" stroke="white" stroke-width="3" stroke-linecap="round" stroke-linejoin="round"/>
<path d="M8.33332 12.5C10.6345 12.5 12.5 10.6345 12.5 8.33329C12.5 6.03211 10.6345 4.16663 8.33332 4.16663C6.03214 4.16663 4.16666 6.03211 4.16666 8.33329C4.16666 10.6345 6.03214 12.5 8.33332 12.5Z" stroke="white" stroke-width="3" stroke-linecap="round" stroke-linejoin="round"/>
</svg>
