<svg width="555" height="529" viewBox="0 0 555 529" fill="none" xmlns="http://www.w3.org/2000/svg">
<g clip-path="url(#clip0)">
<path d="M396.771 57.7696C349.367 57.5228 306.762 80.9666 277.5 118.316C248.238 80.9666 205.633 57.5228 158.229 57.7696C69.2139 58.2332 -1.72875 141.291 0.0320825 242.871C1.73984 341.391 72.2449 420.656 158.97 420.656C162.335 420.656 165.674 420.537 168.988 420.301C241.258 415.169 313.742 415.169 386.012 420.301C389.325 420.536 392.664 420.654 396.03 420.656C482.755 420.656 553.26 341.391 554.968 242.871C556.729 141.291 485.786 58.2332 396.771 57.7696Z" fill="#F2F2F2"/>
<path d="M366.679 4.7146C364.302 4.86683 362.009 5.76674 360.057 7.31343C358.105 8.86013 356.572 10.9925 355.63 13.4713C352.867 21.0413 356.424 29.9333 361.765 35.4534C367.105 40.9735 373.966 44.1287 380.199 48.2761C388.571 53.8466 396.094 61.5795 400.283 71.5059C404.472 81.4322 404.918 93.7281 399.994 103.211C395.423 112.013 387.113 117.281 379.187 122.139" stroke="#3F3D56" stroke-miterlimit="10"/>
<path d="M373.718 10.7476C379.109 10.7476 383.48 8.34163 383.48 5.37378C383.48 2.40592 379.109 0 373.718 0C368.327 0 363.957 2.40592 363.957 5.37378C363.957 8.34163 368.327 10.7476 373.718 10.7476Z" fill="#57B894"/>
<path d="M381.527 46.1512C386.918 46.1512 391.289 43.7453 391.289 40.7775C391.289 37.8096 386.918 35.4037 381.527 35.4037C376.136 35.4037 371.766 37.8096 371.766 40.7775C371.766 43.7453 376.136 46.1512 381.527 46.1512Z" fill="#57B894"/>
<path d="M363.678 51.8411C369.069 51.8411 373.44 49.4352 373.44 46.4673C373.44 43.4995 369.069 41.0936 363.678 41.0936C358.287 41.0936 353.917 43.4995 353.917 46.4673C353.917 49.4352 358.287 51.8411 363.678 51.8411Z" fill="#57B894"/>
<path d="M391.568 81.5549C396.959 81.5549 401.329 79.149 401.329 76.1812C401.329 73.2133 396.959 70.8074 391.568 70.8074C386.177 70.8074 381.806 73.2133 381.806 76.1812C381.806 79.149 386.177 81.5549 391.568 81.5549Z" fill="#57B894"/>
<path d="M411.09 81.5549C416.481 81.5549 420.852 79.149 420.852 76.1812C420.852 73.2133 416.481 70.8074 411.09 70.8074C405.699 70.8074 401.329 73.2133 401.329 76.1812C401.329 79.149 405.699 81.5549 411.09 81.5549Z" fill="#57B894"/>
<path d="M418.264 180.968C416.074 179.907 413.667 179.558 411.312 179.961C408.957 180.363 406.748 181.501 404.932 183.247C399.488 188.637 399.189 198.394 401.809 206.029C404.429 213.665 409.337 219.946 413.295 226.801C418.611 236.009 422.318 246.725 422.179 257.727C422.04 268.73 417.618 279.969 409.489 285.984C401.944 291.567 392.433 292.1 383.428 292.461" stroke="#3F3D56" stroke-miterlimit="10"/>
<path d="M433.055 190.021C434.219 187.362 431.247 183.005 426.418 180.29C421.588 177.575 416.73 177.529 415.566 180.187C414.403 182.846 417.375 187.203 422.204 189.918C427.033 192.633 431.892 192.679 433.055 190.021Z" fill="#57B894"/>
<path d="M426.17 225.67C427.333 223.011 424.362 218.654 419.532 215.939C414.703 213.224 409.845 213.178 408.681 215.836C407.517 218.495 410.489 222.852 415.318 225.567C420.148 228.282 425.006 228.328 426.17 225.67Z" fill="#57B894"/>
<path d="M407.949 221.776C409.113 219.118 406.141 214.761 401.312 212.046C396.482 209.33 391.624 209.284 390.46 211.943C389.296 214.602 392.268 218.958 397.098 221.674C401.927 224.389 406.785 224.435 407.949 221.776Z" fill="#57B894"/>
<path d="M421.283 262.443C422.447 259.784 419.475 255.427 414.645 252.712C409.816 249.996 404.958 249.951 403.794 252.609C402.63 255.268 405.602 259.625 410.432 262.34C415.261 265.055 420.119 265.101 421.283 262.443Z" fill="#57B894"/>
<path d="M438.772 272.276C439.936 269.617 436.964 265.261 432.134 262.545C427.305 259.83 422.447 259.784 421.283 262.443C420.119 265.101 423.091 269.458 427.921 272.173C432.75 274.889 437.608 274.934 438.772 272.276Z" fill="#57B894"/>
<path d="M166.223 231.647C167.912 229.744 170.035 228.412 172.355 227.801C174.674 227.189 177.098 227.322 179.355 228.184C186.17 230.914 189.628 239.856 189.681 248.048C189.734 256.24 187.22 264.133 185.776 272.16C183.836 282.941 183.883 294.452 187.598 304.618C191.312 314.784 199.084 323.378 208.599 325.564C217.43 327.594 226.441 324.109 234.927 320.673" stroke="#3F3D56" stroke-miterlimit="10"/>
<path d="M165.478 241.614C169.081 237.069 170.423 231.776 168.475 229.792C166.527 227.809 162.027 229.885 158.424 234.43C154.821 238.976 153.479 244.268 155.427 246.252C157.375 248.235 161.875 246.159 165.478 241.614Z" fill="#57B894"/>
<path d="M183.493 271.86C187.096 267.315 188.438 262.022 186.491 260.038C184.543 258.055 180.043 260.131 176.44 264.676C172.837 269.222 171.495 274.514 173.443 276.498C175.39 278.481 179.89 276.405 183.493 271.86Z" fill="#57B894"/>
<path d="M199.157 260.614C202.76 256.069 204.102 250.776 202.154 248.793C200.207 246.809 195.707 248.886 192.104 253.431C188.501 257.976 187.159 263.269 189.106 265.252C191.054 267.236 195.554 265.159 199.157 260.614Z" fill="#57B894"/>
<path d="M200.018 303.987C203.621 299.442 204.963 294.149 203.015 292.165C201.067 290.182 196.567 292.258 192.964 296.803C189.361 301.349 188.019 306.641 189.967 308.625C191.915 310.608 196.414 308.532 200.018 303.987Z" fill="#57B894"/>
<path d="M186.97 320.446C190.573 315.901 191.915 310.608 189.967 308.625C188.019 306.641 183.519 308.718 179.916 313.263C176.313 317.808 174.971 323.1 176.919 325.084C178.867 327.067 183.366 324.991 186.97 320.446Z" fill="#57B894"/>
<path d="M390.72 158.659L389.186 171.411L379.703 250.095L364.175 378.952L360.287 411.214C359.991 413.677 358.917 415.934 357.265 417.569C355.613 419.203 353.494 420.103 351.301 420.103H247.748C245.558 420.103 243.442 419.207 241.791 417.577C240.139 415.948 239.063 413.697 238.762 411.239L234.807 378.952L219.016 250.095L209.366 171.354L207.816 158.684C207.636 157.229 207.735 155.747 208.104 154.338C208.473 152.93 209.105 151.627 209.956 150.519C210.807 149.41 211.858 148.522 213.038 147.913C214.218 147.304 215.499 146.989 216.796 146.989H381.734C383.028 146.989 384.308 147.304 385.486 147.911C386.665 148.519 387.715 149.405 388.566 150.51C389.417 151.616 390.049 152.915 390.421 154.32C390.793 155.726 390.894 157.205 390.72 158.659V158.659Z" fill="#F9A826"/>
<path d="M371.342 112.849H227.723C222.714 112.849 218.653 117.452 218.653 123.129V136.709C218.653 142.386 222.714 146.989 227.723 146.989H371.342C376.351 146.989 380.412 142.386 380.412 136.709V123.129C380.412 117.452 376.351 112.849 371.342 112.849Z" fill="#2F2E41"/>
<path opacity="0.1" d="M380.412 128.983V136.709C380.412 139.435 379.456 142.05 377.755 143.978C376.055 145.905 373.748 146.989 371.342 146.989H227.723C225.318 146.989 223.011 145.905 221.31 143.978C219.609 142.05 218.653 139.435 218.653 136.709V129.002C272.451 134.812 326.615 134.806 380.412 128.983V128.983Z" fill="black"/>
<path d="M256.304 244.665C269.859 244.665 280.847 232.211 280.847 216.848C280.847 201.485 269.859 189.03 256.304 189.03C242.749 189.03 231.761 201.485 231.761 216.848C231.761 232.211 242.749 244.665 256.304 244.665Z" fill="#2F2E41"/>
<path d="M343.319 244.665C356.874 244.665 367.862 232.211 367.862 216.848C367.862 201.485 356.874 189.03 343.319 189.03C329.764 189.03 318.776 201.485 318.776 216.848C318.776 232.211 329.764 244.665 343.319 244.665Z" fill="#2F2E41"/>
<path d="M255.188 224.434C258.885 224.434 261.882 221.038 261.882 216.848C261.882 212.658 258.885 209.261 255.188 209.261C251.492 209.261 248.495 212.658 248.495 216.848C248.495 221.038 251.492 224.434 255.188 224.434Z" fill="white"/>
<path d="M265.229 205.468C266.769 205.468 268.018 204.053 268.018 202.307C268.018 200.561 266.769 199.146 265.229 199.146C263.688 199.146 262.44 200.561 262.44 202.307C262.44 204.053 263.688 205.468 265.229 205.468Z" fill="white"/>
<path d="M343.319 224.434C347.016 224.434 350.012 221.038 350.012 216.848C350.012 212.658 347.016 209.261 343.319 209.261C339.622 209.261 336.626 212.658 336.626 216.848C336.626 221.038 339.622 224.434 343.319 224.434Z" fill="white"/>
<path d="M353.359 205.468C354.899 205.468 356.148 204.053 356.148 202.307C356.148 200.561 354.899 199.146 353.359 199.146C351.819 199.146 350.57 200.561 350.57 202.307C350.57 204.053 351.819 205.468 353.359 205.468Z" fill="white"/>
<path opacity="0.1" d="M390.204 153.627H390.205C390.203 153.619 390.199 153.612 390.197 153.604C389.958 152.896 389.651 152.221 389.281 151.59L389.28 151.588C389.171 151.402 389.055 151.222 388.936 151.044C388.896 150.985 388.855 150.926 388.814 150.868C388.466 150.374 388.079 149.916 387.658 149.502C387.564 149.409 387.469 149.318 387.371 149.23C387.262 149.131 387.152 149.033 387.038 148.94C386.897 148.823 386.75 148.714 386.602 148.606C386.485 148.521 386.368 148.438 386.248 148.359C386.062 148.238 385.872 148.123 385.678 148.015C385.585 147.965 385.491 147.917 385.397 147.87C385.212 147.777 385.023 147.691 384.831 147.612C384.754 147.58 384.678 147.545 384.599 147.515C384.334 147.415 384.062 147.328 383.786 147.255C383.718 147.238 383.649 147.225 383.58 147.209C383.354 147.156 383.125 147.113 382.892 147.079C382.808 147.067 382.724 147.055 382.64 147.045C382.342 147.012 382.041 146.989 381.735 146.989L381.734 146.989H216.796C215.501 146.993 214.222 147.312 213.044 147.922C211.867 148.533 210.817 149.421 209.967 150.528C209.117 151.635 208.485 152.935 208.114 154.341C207.743 155.748 207.641 157.227 207.815 158.682L208.077 160.819L209.366 171.354L209.368 171.354L219.017 250.096H219.016L231.682 353.455L238.763 411.238C239.064 413.695 240.139 415.947 241.79 417.576C243.441 419.205 245.557 420.103 247.746 420.103H252.66C252.417 419.385 252.246 418.638 252.15 417.876L247.38 378.952H364.175L379.704 250.096H231.59L222.096 172.614C277.717 177.727 333.626 177.324 389.186 171.411L390.72 158.659C390.924 156.959 390.747 155.228 390.204 153.627Z" fill="black"/>
<path d="M403.695 164.058C334.459 172.624 264.606 172.624 195.371 164.058C192.966 164.058 190.659 162.975 188.958 161.048C187.257 159.12 186.302 156.505 186.302 153.779V140.198C186.302 137.472 187.257 134.857 188.958 132.93C190.659 131.002 192.966 129.919 195.371 129.919C264.552 139.56 334.514 139.56 403.695 129.919C406.1 129.919 408.407 131.002 410.107 132.93C411.808 134.857 412.764 137.472 412.764 140.198V153.779C412.764 156.505 411.808 159.12 410.107 161.048C408.407 162.975 406.1 164.058 403.695 164.058V164.058Z" fill="#2F2E41"/>
<path d="M368.439 374.268H229C227.748 374.268 226.537 373.762 225.585 372.84C224.633 371.919 224.002 370.643 223.806 369.242L208.742 261.675C208.623 260.824 208.668 259.953 208.874 259.124C209.08 258.295 209.443 257.526 209.936 256.87C210.43 256.215 211.043 255.689 211.734 255.328C212.424 254.967 213.175 254.78 213.936 254.78H384.507C385.272 254.78 386.028 254.969 386.721 255.334C387.415 255.699 388.03 256.232 388.524 256.894C389.018 257.556 389.378 258.332 389.58 259.168C389.781 260.005 389.82 260.881 389.692 261.735L373.623 369.302C373.416 370.691 372.782 371.951 371.832 372.86C370.883 373.769 369.681 374.268 368.439 374.268Z" fill="#2F2E41"/>
<path d="M352.572 297.594C353.23 297.73 353.842 298.065 354.346 298.563C354.85 299.06 355.226 299.703 355.434 300.423C355.643 301.142 355.676 301.912 355.531 302.652C355.386 303.391 355.068 304.073 354.61 304.624C345.763 315.313 324.312 337.6 299.254 337.6C274.196 337.6 252.745 315.313 243.898 304.624C243.44 304.073 243.121 303.391 242.976 302.652C242.831 301.912 242.865 301.142 243.073 300.423C243.282 299.703 243.658 299.06 244.161 298.563C244.665 298.065 245.278 297.73 245.935 297.594C281.185 290.243 317.322 290.243 352.572 297.594H352.572Z" fill="#F9A826"/>
<path d="M327.142 304.259C327.821 304.382 328.457 304.716 328.979 305.224C329.501 305.732 329.888 306.394 330.097 307.137C330.306 307.88 330.33 308.673 330.165 309.43C330 310.187 329.653 310.877 329.162 311.423C323.171 318.044 312.02 328.028 299.254 328.028C286.487 328.028 275.337 318.044 269.345 311.423C268.855 310.877 268.508 310.187 268.343 309.43C268.178 308.673 268.201 307.88 268.411 307.137C268.62 306.394 269.007 305.732 269.529 305.224C270.05 304.716 270.686 304.382 271.365 304.259C289.831 300.783 308.676 300.783 327.142 304.259Z" fill="white"/>
<path d="M70.5606 420.419H455.992" stroke="#3F3D56" stroke-miterlimit="10"/>
<path d="M102.439 361.905V379.689L110.497 390.264C110.497 390.264 113.889 388.822 113.889 379.208L115.162 365.269L102.439 361.905Z" fill="#A0616A"/>
<path d="M110.497 379.689C110.497 379.689 97.3503 369.595 96.9262 366.231C96.5021 362.866 77.8426 347.485 80.8111 357.098C83.7797 366.711 93.1095 371.037 93.1095 371.037C93.1095 371.037 100.319 393.148 106.68 392.667C113.041 392.186 113.041 383.054 110.497 379.689Z" fill="#A0616A"/>
<path d="M118.13 487.838L119.402 496.489L112.617 494.567V487.838H118.13Z" fill="#3F3D56"/>
<path d="M116.858 492.644C116.858 492.644 109.016 487.378 108.696 489.771C108.376 492.164 104.984 501.296 103.287 502.258C101.591 503.219 99.4707 513.794 103.287 513.313C106.243 512.941 117.086 506.513 121.825 503.634C122.408 503.277 122.849 502.681 123.056 501.967C123.263 501.254 123.221 500.477 122.939 499.798C122.661 499.215 122.469 498.585 122.371 497.932C122.371 496.97 116.858 492.644 116.858 492.644Z" fill="#2F2E41"/>
<path d="M120.675 395.07C120.675 395.07 89.7168 411.413 92.6854 423.91C95.6539 436.407 106.68 489.28 106.68 489.28C106.68 489.28 118.978 492.644 119.826 489.28C120.675 485.915 111.769 433.523 112.617 431.6C113.465 429.678 129.156 417.181 129.156 417.181L161.386 401.8L147.816 387.38L120.675 395.07Z" fill="#2F2E41"/>
<path d="M97.3502 490.722L93.5333 501.777L100.319 505.142L104.56 496.489L97.3502 490.722Z" fill="#3F3D56"/>
<path d="M120.251 316.242C120.251 316.242 124.067 322.01 121.099 324.894C118.13 327.778 120.251 338.352 120.251 338.352L124.067 350.369L139.334 347.004V327.297L138.486 317.684C138.486 317.684 130.853 309.513 130.004 303.264C129.156 297.015 120.251 316.242 120.251 316.242Z" fill="#A0616A"/>
<path opacity="0.1" d="M120.251 316.242C120.251 316.242 124.067 322.01 121.099 324.894C118.13 327.778 120.251 338.352 120.251 338.352L124.067 350.369L139.334 347.004V327.297L138.486 317.684C138.486 317.684 130.853 309.513 130.004 303.264C129.156 297.015 120.251 316.242 120.251 316.242Z" fill="black"/>
<path d="M145.695 391.225C145.695 391.225 125.764 416.219 125.764 417.181C125.764 418.142 115.162 437.849 115.162 437.849L94.3817 490.241C94.3817 490.241 102.439 502.738 105.832 501.777C109.225 500.816 133.397 445.059 133.397 445.059C133.397 445.059 137.638 432.562 149.088 429.678C160.538 426.794 169.444 416.7 165.203 405.164C160.962 393.628 145.695 391.225 145.695 391.225Z" fill="#2F2E41"/>
<path d="M120.251 319.606C127.745 319.606 133.821 312.72 133.821 304.225C133.821 295.731 127.745 288.844 120.251 288.844C112.756 288.844 106.68 295.731 106.68 304.225C106.68 312.72 112.756 319.606 120.251 319.606Z" fill="#A0616A"/>
<path d="M120.675 329.22C120.675 329.22 122.371 340.275 124.067 341.236C125.764 342.198 127.036 345.562 130.853 340.756C134.669 335.949 138.062 326.336 138.062 326.336L151.208 344.601L152.481 395.07C152.481 395.07 137.638 390.744 132.973 395.07C128.308 399.396 118.13 398.916 118.13 398.916L120.251 389.302L118.554 372.96L118.978 358.059L119.402 347.485L120.675 329.22Z" fill="#F2F2F2"/>
<path d="M122.169 321.129C122.169 321.129 116.434 324.413 116.01 326.336C115.586 328.258 107.952 332.104 107.952 332.104C107.952 332.104 104.984 335.468 104.984 337.391C104.984 339.314 115.162 361.424 115.162 361.424C115.162 361.424 117.282 376.324 116.434 379.208C115.586 382.092 118.13 393.148 118.13 393.148L113.041 399.877H117.706C117.706 399.877 122.795 396.993 122.795 395.551C122.795 394.109 121.947 384.015 121.523 379.689C121.099 375.363 121.099 359.982 121.947 354.695C122.795 349.407 122.371 335.468 122.371 332.104C122.371 328.739 122.169 321.129 122.169 321.129Z" fill="#3F3D56"/>
<path d="M135.305 313.831C135.305 313.831 137.214 314.319 142.727 316.242C148.24 318.165 156.721 321.048 159.69 324.894C161.774 327.738 163.619 330.795 165.203 334.026L163.507 368.634C163.507 368.634 166.899 375.844 166.475 379.689C166.051 383.534 162.659 384.015 165.203 392.186C167.747 400.358 172.836 407.567 168.172 408.529C163.507 409.49 151.208 406.125 145.695 408.048C140.182 409.971 133.821 400.838 133.821 400.838C133.821 400.838 142.303 401.8 141.03 397.954C139.758 394.109 125.764 350.849 128.732 341.236C131.701 331.623 135.305 313.831 135.305 313.831Z" fill="#3F3D56"/>
<path d="M107.104 334.988L104.984 336.91C104.984 336.91 99.0466 360.943 100.743 363.347C102.439 365.75 116.01 371.037 116.858 367.673C117.706 364.308 107.104 334.988 107.104 334.988Z" fill="#3F3D56"/>
<path d="M169.868 351.811C169.868 351.811 176.229 372.479 176.229 378.247C176.229 384.015 175.381 417.661 175.381 417.661C175.381 417.661 174.957 432.081 166.051 426.313C157.146 420.545 166.051 416.7 166.051 416.7C166.051 416.7 165.627 378.728 162.234 373.44C158.842 368.153 157.57 360.463 157.57 360.463L169.868 351.811Z" fill="#A0616A"/>
<path d="M100.319 501.296C100.319 501.296 93.9576 497.451 92.6854 500.335C91.4131 503.219 84.6278 519.081 85.476 521.003C86.3242 522.926 90.989 530.617 96.5021 528.694C102.015 526.771 102.439 516.678 102.439 516.678L102.863 505.142L100.319 501.296Z" fill="#2F2E41"/>
<path d="M117.593 300.51C118.528 301.009 119.637 301.307 120.224 302.27C120.66 302.984 120.703 303.911 121.021 304.701C121.367 305.483 121.964 306.085 122.689 306.386C123.414 306.686 124.213 306.662 124.922 306.318C125.096 305.361 125.587 304.515 126.295 303.956C126.652 303.69 127.075 303.561 127.502 303.587C127.929 303.614 128.338 303.795 128.667 304.104C129.541 305.049 129.232 306.696 129.64 307.984C130.023 308.89 130.549 309.709 131.194 310.399C132.122 311.613 132.862 313.037 133.979 314.024C135.097 315.012 136.792 315.44 137.903 314.442C138.837 313.603 139.03 312.054 138.803 310.728C138.577 309.402 138.014 308.181 137.697 306.879C136.667 302.649 138.31 298.132 137.801 293.781C137.15 288.206 132.969 283.802 128.303 281.891C126.361 280.995 124.235 280.74 122.17 281.155C120.036 281.695 118.213 283.235 116.169 284.115C113.984 285.057 111.607 285.222 109.32 285.772C107.032 286.323 104.678 287.387 103.351 289.569C102.425 291.091 102.107 292.981 101.34 294.613C100.457 296.474 99.0261 297.927 97.2966 298.718L99.7145 298.562C99.3092 299.785 98.6481 300.879 97.788 301.749C98.9218 302.011 100.1 301.834 101.135 301.247C101.116 301.811 100.996 302.364 100.781 302.872C100.567 303.381 100.262 303.834 99.8872 304.204C101.748 304.14 103.71 304.043 105.282 302.914C106.052 302.36 106.68 301.59 107.405 300.962C108.949 299.626 110.866 298.991 112.734 298.383C113.715 298.064 114.895 297.621 115.783 298.336C116.521 298.931 116.638 300 117.593 300.51Z" fill="#2F2E41"/>
<path d="M158.842 328.258L165.203 334.026L173.685 356.137C173.685 356.137 161.81 366.711 158.842 365.269C155.873 363.827 150.784 338.352 150.784 338.352L158.842 328.258Z" fill="#3F3D56"/>
<path d="M95.6109 350.589L95.5046 351.472L94.8476 356.924L93.7716 365.853L93.5022 368.088C93.4817 368.258 93.4073 368.415 93.2929 368.528C93.1784 368.641 93.0316 368.704 92.8796 368.704H85.7047C85.553 368.704 85.4064 368.642 85.292 368.529C85.1775 368.416 85.103 368.26 85.0821 368.09L84.8081 365.853L83.7139 356.924L83.0453 351.469L82.9379 350.591C82.9255 350.49 82.9323 350.387 82.9579 350.29C82.9835 350.192 83.0272 350.102 83.0862 350.025C83.1452 349.948 83.218 349.887 83.2998 349.844C83.3815 349.802 83.4703 349.78 83.5601 349.78H94.9883C95.078 349.78 95.1666 349.802 95.2482 349.844C95.3299 349.886 95.4026 349.948 95.4616 350.024C95.5206 350.101 95.5644 350.191 95.5902 350.288C95.6159 350.386 95.623 350.488 95.6109 350.589Z" fill="#F9A826"/>
<path d="M94.2683 347.415H84.3172C83.9702 347.415 83.6888 347.734 83.6888 348.127V349.068C83.6888 349.461 83.9702 349.78 84.3172 349.78H94.2683C94.6153 349.78 94.8967 349.461 94.8967 349.068V348.127C94.8967 347.734 94.6153 347.415 94.2683 347.415Z" fill="#2F2E41"/>
<path d="M96.5098 350.963C91.7127 351.557 86.8728 351.557 82.0756 350.963C81.9931 350.963 81.9114 350.945 81.8352 350.909C81.7589 350.873 81.6897 350.821 81.6313 350.754C81.573 350.688 81.5267 350.61 81.4951 350.523C81.4635 350.437 81.4473 350.344 81.4473 350.251V349.31C81.4473 349.121 81.5135 348.94 81.6313 348.806C81.7492 348.673 81.909 348.598 82.0756 348.598C86.869 349.266 91.7165 349.266 96.5098 348.598C96.6765 348.598 96.8363 348.673 96.9542 348.806C97.072 348.94 97.1382 349.121 97.1382 349.31V350.251C97.1382 350.44 97.072 350.621 96.9542 350.754C96.8363 350.888 96.6765 350.963 96.5098 350.963Z" fill="#2F2E41"/>
<path d="M94.0671 365.528H84.4057C84.319 365.528 84.2351 365.493 84.1692 365.429C84.1032 365.365 84.0595 365.277 84.0459 365.18L83.0021 357.727C82.9939 357.668 82.997 357.607 83.0113 357.55C83.0256 357.492 83.0507 357.439 83.0849 357.394C83.1191 357.348 83.1616 357.312 83.2094 357.287C83.2572 357.262 83.3093 357.249 83.362 357.249H95.1804C95.2334 357.249 95.2858 357.262 95.3338 357.287C95.3819 357.313 95.4245 357.35 95.4587 357.395C95.4929 357.441 95.5179 357.495 95.5319 357.553C95.5458 357.611 95.5485 357.672 95.5396 357.731L94.4263 365.184C94.4119 365.28 94.368 365.367 94.3022 365.43C94.2365 365.493 94.1532 365.528 94.0671 365.528Z" fill="#2F2E41"/>
</g>
<defs>
<clipPath id="clip0">
<rect width="555" height="529" fill="white"/>
</clipPath>
</defs>
</svg>
